<?xml version="1.0" encoding="UTF-8" standalone="no" ?>
<!DOCTYPE svg PUBLIC "-//W3C//DTD SVG 1.1//EN" "http://www.w3.org/Graphics/SVG/1.1/DTD/svg11.dtd">
<svg xmlns="http://www.w3.org/2000/svg" xmlns:xlink="http://www.w3.org/1999/xlink" version="1.1" width="900" height="450" viewBox="0 0 900 450" xml:space="preserve">
<desc>Created with Fabric.js 4.6.0</desc>
<defs>
</defs>

<rect width="900" height="450" style="fill:rgb(229,228,226);stroke-width:1;stroke:rgb(0,0,0)" />
<g transform="matrix(1 0 0 1 461.09 177.35)" id="FB0ctJBbQHPQY-cOnJ_hf"  >
<path style="stroke: rgb(0,0,0); stroke-width: 2; stroke-dasharray: none; stroke-linecap: butt; stroke-dashoffset: 0; stroke-linejoin: miter; stroke-miterlimit: 4; fill: rgb(255,255,255); fill-opacity: 0; fill-rule: nonzero; opacity: 1;" vector-effect="non-scaling-stroke"  transform=" translate(0, 0)" d="M -161.65966 -110.61299 L -161.65966 74.68113 C -161.65966 74.68113 -161.65966 109.66012 -137.07983000000002 110.6055 C -112.50000000000001 111.55088 -83.19328000000002 -0.34931999999999164 -83.19328000000002 -0.34931999999999164 L -83.19328000000002 74.68113000000001 C -83.19328000000002 74.68113000000001 -80.35715000000002 110.6055 -66.17647000000002 110.6055 C -51.995800000000024 110.6055 -21.743700000000025 -0.34931999999999164 -21.743700000000025 -0.34931999999999164 L -21.743700000000025 110.6055 L -10.399160000000025 22.685330000000008 C -10.399160000000025 22.685330000000008 -10.399160000000025 -0.34932999999999126 10.399159999999975 -0.34932999999999126 C 31.197479999999977 -0.34932999999999126 22.689079999999976 110.60549 22.689079999999976 110.60549 L 31.197479999999977 22.685320000000004 C 31.197479999999977 22.685320000000004 34.978989999999975 -0.34933999999999443 44.43276999999998 -0.34933999999999443 C 53.88654999999998 -0.34933999999999443 65.23108999999998 14.176910000000005 64.28570999999998 22.685320000000004 C 63.34032999999998 31.193720000000006 64.28570999999998 74.68112 64.28570999999998 74.68112 C 64.28570999999998 74.68112 63.34032999999998 109.66011 84.13864999999998 110.60549 C 104.93696999999999 111.55087 145.58822999999998 22.685320000000004 145.58822999999998 22.685320000000004 C 145.58822999999998 22.685320000000004 136.13445 -1.294709999999995 118.17225999999998 -0.34933999999999443 C 100.21007999999998 0.5960400000000056 95.48317999999998 14.176910000000005 94.53780999999998 22.685320000000004 C 93.59242999999998 31.193720000000006 98.31931999999998 110.60549 118.17225999999998 110.60549 C 138.02519999999998 110.60549 161.65964999999997 87.91641 161.65964999999997 87.91641" stroke-linecap="round" />
</g>
<g transform="matrix(0.07 0 0 0.07 376.71 158.7)" id="nnCSKtPknO6QjDO6T1r6O"  >
<path style="stroke: rgb(122,71,24); stroke-width: 0; stroke-dasharray: none; stroke-linecap: butt; stroke-dashoffset: 0; stroke-linejoin: miter; stroke-miterlimit: 4; fill: rgb(0,0,0); fill-rule: nonzero; opacity: 1;" vector-effect="non-scaling-stroke"  transform=" translate(0, 0)" d="M 0 -47.26891 C 26.09244 -47.26891 47.26891 -26.09244 47.26891 0 C 47.26891 26.09244 26.09244 47.26891 0 47.26891 C -26.09244 47.26891 -47.26891 26.09244 -47.26891 0 C -47.26891 -26.09244 -26.09244 -47.26891 0 -47.26891 z" stroke-linecap="round" />
</g>
<g transform="matrix(1 0 0 1 306.01 132.97)" id="5tlI1Vs5RAeGmEJQKTQ_B"  >
<path style="stroke: rgb(0,0,0); stroke-width: 2; stroke-dasharray: none; stroke-linecap: butt; stroke-dashoffset: 0; stroke-linejoin: miter; stroke-miterlimit: 4; fill: rgb(255,255,255); fill-opacity: 0; fill-rule: nonzero; opacity: 1;" vector-effect="non-scaling-stroke"  transform=" translate(0, 0)" d="M -47.7416 5.44916 C -47.7416 5.44916 6.1449500000000015 30.02899 47.741589999999995 -12.513020000000001" stroke-linecap="round" />
</g>
</svg>