<?xml version="1.0" encoding="UTF-8" standalone="no" ?>
<!DOCTYPE svg PUBLIC "-//W3C//DTD SVG 1.1//EN" "http://www.w3.org/Graphics/SVG/1.1/DTD/svg11.dtd">
<svg xmlns="http://www.w3.org/2000/svg" xmlns:xlink="http://www.w3.org/1999/xlink" version="1.1" width="900" height="450" viewBox="0 0 900 450" xml:space="preserve">
<desc>Created with Fabric.js 4.6.0</desc>
<defs>
</defs>
<rect width="900" height="450" style="fill:rgb(229,228,226);stroke-width:1;stroke:rgb(0,0,0)" />
<g transform="matrix(1 0 0 1 245.91 283.45)" id="SmK_URnBDu8IfHd4wGj1w"  >
<path style="stroke: rgb(0,0,0); stroke-width: 2; stroke-dasharray: none; stroke-linecap: butt; stroke-dashoffset: 0; stroke-linejoin: miter; stroke-miterlimit: 4; fill: rgb(255,255,255); fill-opacity: 0; fill-rule: nonzero; opacity: 1;" vector-effect="non-scaling-stroke"  transform=" translate(0, 0)" d="M -72.9095 14.8126 C -88.98093 14.8126 -94.6532 50.73697 -76.69100999999999 52.62773 C -58.72882999999999 54.51849 -3.896889999999985 -26.78403 -2.9515099999999848 -49.473110000000005 C -2.0061299999999846 -72.16219000000001 5.556890000000015 33.720169999999996 5.556890000000015 33.720169999999996 C 5.556890000000015 33.720169999999996 -1.060759999999985 53.57311 -12.405289999999985 52.62773 C -23.749829999999985 51.68235 -27.531339999999986 45.0647 -20.913689999999985 33.720169999999996 C -14.296039999999984 22.375629999999994 39.59051000000001 -48.527730000000005 49.98967000000002 -49.473110000000005 C 60.38883000000002 -50.418490000000006 81.18715000000002 -55.14538 87.80480000000003 -49.473110000000005" stroke-linecap="round" />
</g>
<g transform="matrix(1 0 0 1 295.9 235.87)" id="sOucoM20P5ig16Uece2xP"  >
<path style="stroke: rgb(0,0,0); stroke-width: 2; stroke-dasharray: none; stroke-linecap: butt; stroke-dashoffset: 0; stroke-linejoin: miter; stroke-miterlimit: 4; fill: rgb(255,255,255); fill-opacity: 0; fill-rule: nonzero; opacity: 1;" vector-effect="non-scaling-stroke"  transform=" translate(0, 0)" d="M 0 0" stroke-linecap="round" />
</g>
<g transform="matrix(1 0 0 1 415.53 319.7)" id="sr-JD_3B6Fy3LaAKkLBBf"  >
<path style="stroke: rgb(0,0,0); stroke-width: 2; stroke-dasharray: none; stroke-linecap: butt; stroke-dashoffset: 0; stroke-linejoin: miter; stroke-miterlimit: 4; fill: rgb(255,255,255); fill-opacity: 0; fill-rule: nonzero; opacity: 1;" vector-effect="non-scaling-stroke"  transform=" translate(0, 0)" d="M -120.12218 -84.33225 C -138.08436 -83.38687 -152.71042 11.650939999999991 -90.31546 11.650939999999991 C -27.920500000000004 11.650939999999991 -32.64739 -56.416290000000004 -26.975120000000004 -73.43309 C -21.302850000000003 -90.44990000000001 -36.428900000000006 -91.30109 -43.04655 -89.41034 C -49.6642 -87.51958 -55.336470000000006 -85.72301 -56.28184 -73.43309 C -57.22722 -61.143170000000005 23.12992 -85.72301 18.40303 -62.088550000000005 C 13.67614 -38.454100000000004 0.4408500000000011 19.746689999999994 11.78538 16.910559999999997 C 23.12992 14.074429999999996 71.3442 -70.15156999999999 71.3442 -84.33225000000002 C 71.3442 -98.51292000000001 73.23496 -8.202000000000012 71.3442 -9.147380000000013 C 69.45344 -10.092760000000013 77.01647 17.855929999999987 94.97865 16.910549999999986 C 112.94083 15.965169999999986 135.62991 -84.33226000000002 135.62991 -84.33226000000002 L 135.62991 90.11731999999998" stroke-linecap="round" />
</g>
<g transform="matrix(1 0 0 1 626.09 253.11)" id="_9zXupiDcQO_0WE3Ujd6j"  >
<path style="stroke: rgb(0,0,0); stroke-width: 2; stroke-dasharray: none; stroke-linecap: butt; stroke-dashoffset: 0; stroke-linejoin: miter; stroke-miterlimit: 4; fill: rgb(255,255,255); fill-opacity: 0; fill-rule: nonzero; opacity: 1;" vector-effect="non-scaling-stroke"  transform=" translate(0, 0)" d="M -74.43487 3.56117 C -74.43487 3.56117 -65.48109000000001 -15.79177 -38.06512 -16.73715 C -10.649149999999999 -17.68253 -9.703780000000002 18.687220000000003 -18.21218 38.54016 C -26.720579999999998 58.393100000000004 -38.06512 77.30066 -38.06512 77.30066 C -38.06512 77.30066 33.783620000000006 18.78139999999999 33.783620000000006 -22.815240000000003 C 33.783620000000006 -64.41188 33.783620000000006 -82.46825000000001 33.783620000000006 -82.46825000000001 C 33.783620000000006 -82.46825000000001 32.838240000000006 59.977449999999976 33.783620000000006 66.59509 C 34.729000000000006 73.21274 74.43488 98.73795 74.43488 66.59509" stroke-linecap="round" />
</g>
<g transform="matrix(1 0 0 1 668.63 225)" id="8h72VkCJnZ6EhTZGNiOQP"  >
<path style="stroke: rgb(0,0,0); stroke-width: 2; stroke-dasharray: none; stroke-linecap: butt; stroke-dashoffset: 0; stroke-linejoin: miter; stroke-miterlimit: 4; fill: rgb(255,255,255); fill-opacity: 0; fill-rule: nonzero; opacity: 1;" vector-effect="non-scaling-stroke"  transform=" translate(0, 0)" d="M -32.39286 0 L 32.392849999999996 0" stroke-linecap="round" />
</g>
<g transform="matrix(1 0 0 1 488.2 197.49)" id="m4Jv8Mfy3uz9pIsH7VPiz"  >
<path style="stroke: rgb(192,243,38); stroke-width: 0; stroke-dasharray: none; stroke-linecap: butt; stroke-dashoffset: 0; stroke-linejoin: miter; stroke-miterlimit: 4; fill: rgb(0,0,0); fill-rule: nonzero; opacity: 1;" vector-effect="non-scaling-stroke"  transform=" translate(-3.78, -3.78)" d="M 3.78152 0 C 5.86892 0 7.56304 1.69412 7.56304 3.78152 C 7.56304 5.86892 5.86892 7.56304 3.78152 7.56304 C 1.6941199999999998 7.56304 0 5.86892 0 3.78152 C 0 1.6941199999999998 1.69412 0 3.78152 0 z" stroke-linecap="round" />
</g>
</svg>