<?xml version="1.0" encoding="UTF-8" standalone="no" ?>
<!DOCTYPE svg PUBLIC "-//W3C//DTD SVG 1.1//EN" "http://www.w3.org/Graphics/SVG/1.1/DTD/svg11.dtd">
<svg xmlns="http://www.w3.org/2000/svg" xmlns:xlink="http://www.w3.org/1999/xlink" version="1.1" width="900" height="450" viewBox="0 0 900 450" xml:space="preserve">
<desc>Created with Fabric.js 4.6.0</desc>
<defs>
</defs>
<rect width="900" height="450" style="fill:rgb(229,228,226);stroke-width:1;stroke:rgb(0,0,0)" />
<g transform="matrix(1 0 0 1 186.07 167.5)" id="FPg8wClQg-as2BUSKuIbB"  >
<path style="stroke: rgb(0,0,0); stroke-width: 2; stroke-dasharray: none; stroke-linecap: butt; stroke-dashoffset: 0; stroke-linejoin: miter; stroke-miterlimit: 4; fill: rgb(255,255,255); fill-opacity: 0; fill-rule: nonzero; opacity: 1;" vector-effect="non-scaling-stroke"  transform=" translate(0, 0)" d="M 0 0" stroke-linecap="round" />
</g>
<g transform="matrix(1 0 0 1 186.57 168)" id="JEcBu7mKY1rD-luGEezGM"  >
<path style="stroke: rgb(0,0,0); stroke-width: 2; stroke-dasharray: none; stroke-linecap: butt; stroke-dashoffset: 0; stroke-linejoin: miter; stroke-miterlimit: 4; fill: rgb(255,255,255); fill-opacity: 0; fill-rule: nonzero; opacity: 1;" vector-effect="non-scaling-stroke"  transform=" translate(0, 0)" d="M 0 0" stroke-linecap="round" />
</g>
<g transform="matrix(1 0 0 1 318.42 230.34)" id="C7mDz74uIfF36tlGW9YLI"  >
<path style="stroke: rgb(0,0,0); stroke-width: 2; stroke-dasharray: none; stroke-linecap: butt; stroke-dashoffset: 0; stroke-linejoin: miter; stroke-miterlimit: 4; fill: rgb(255,255,255); fill-opacity: 0; fill-rule: nonzero; opacity: 1;" vector-effect="non-scaling-stroke"  transform=" translate(0, 0)" d="M 0 0" stroke-linecap="round" />
</g>
<g transform="matrix(1 0 0 1 289.11 221.83)" id="C0vVPM3i32bCpJ3oG0XLW"  >
<path style="stroke: rgb(0,0,0); stroke-width: 2; stroke-dasharray: none; stroke-linecap: butt; stroke-dashoffset: 0; stroke-linejoin: miter; stroke-miterlimit: 4; fill: rgb(255,255,255); fill-opacity: 0; fill-rule: nonzero; opacity: 1;" vector-effect="non-scaling-stroke"  transform=" translate(0, 0)" d="M 0 0" stroke-linecap="round" />
</g>
<g transform="matrix(1 0 0 1 259.33 247.59)" id="VOADMMeef65kIBMgRMGjP"  >
<path style="stroke: rgb(0,0,0); stroke-width: 2; stroke-dasharray: none; stroke-linecap: butt; stroke-dashoffset: 0; stroke-linejoin: miter; stroke-miterlimit: 4; fill: rgb(255,255,255); fill-opacity: 0; fill-rule: nonzero; opacity: 1;" vector-effect="non-scaling-stroke"  transform=" translate(0, 0)" d="M 30.2806 -17.74479 C 30.2806 -47.99688999999999 24.10833 -55.532610000000005 -0.4714999999999989 -54.587230000000005 C -25.05133 -53.641850000000005 -38.28663 -31.425470000000004 -25.05133 -17.244790000000002 C -11.81604 -3.0641200000000026 28.33522 -9.68176 29.2806 14.898069999999997 C 30.22598 39.4779 29.7806 53.65857 4.2553899999999985 54.60395 C -21.269820000000003 55.54933 -25.05133 45.150169999999996 -25.05133 35.696389999999994" stroke-linecap="round" />
</g>
<g transform="matrix(1 0 0 1 343.47 192.42)" id="GZMymqQ8NBwGOqq4lW3iS"  >
<path style="stroke: rgb(0,0,0); stroke-width: 2; stroke-dasharray: none; stroke-linecap: butt; stroke-dashoffset: 0; stroke-linejoin: miter; stroke-miterlimit: 4; fill: rgb(255,255,255); fill-opacity: 0; fill-rule: nonzero; opacity: 1;" vector-effect="non-scaling-stroke"  transform=" translate(0, 0)" d="M -25.55252 0 L 25.55252 0" stroke-linecap="round" />
</g>
<g transform="matrix(1 0 0 1 411.29 248.13)" id="dPpQ_JDWQLPBIK6G29mit"  >
<path style="stroke: rgb(0,0,0); stroke-width: 2; stroke-dasharray: none; stroke-linecap: butt; stroke-dashoffset: 0; stroke-linejoin: miter; stroke-miterlimit: 4; fill: rgb(255,255,255); fill-opacity: 0; fill-rule: nonzero; opacity: 1;" vector-effect="non-scaling-stroke"  transform=" translate(0, 0)" d="M 0 -55.12559 L 0 55.12559" stroke-linecap="round" />
</g>
<g transform="matrix(1 0 0 1 407.79 191.92)" id="UZ_G0f3SoJhbiZnDohhkY"  >
<path style="stroke: rgb(0,0,0); stroke-width: 2; stroke-dasharray: none; stroke-linecap: butt; stroke-dashoffset: 0; stroke-linejoin: miter; stroke-miterlimit: 4; fill: rgb(255,255,255); fill-opacity: 0; fill-rule: nonzero; opacity: 1;" vector-effect="non-scaling-stroke"  transform=" translate(0, 0)" d="M 0 0" stroke-linecap="round" />
</g>
<g transform="matrix(1 0 0 1 434.46 219.32)" id="DJlFyXvBT7COHRhLkZT6X"  >
<path style="stroke: rgb(0,0,0); stroke-width: 2; stroke-dasharray: none; stroke-linecap: butt; stroke-dashoffset: 0; stroke-linejoin: miter; stroke-miterlimit: 4; fill: rgb(255,255,255); fill-opacity: 0; fill-rule: nonzero; opacity: 1;" vector-effect="non-scaling-stroke"  transform=" translate(0, 0)" d="M -27.67202 -27.89966 C -27.67202 -27.89966 26.71453 -27.29562 27.65991 2.011099999999999 C 28.17126 17.86291 12.38007 24.100939999999998 -2.2273899999999998 26.48756 C -14.62611 28.513299999999997 -26.17202 27.7643 -26.17202 27.7643" stroke-linecap="round" />
</g>
<g transform="matrix(1 0 0 1 448.54 274.92)" id="0gCUWztCOvMFickcbglFE"  >
<path style="stroke: rgb(0,0,0); stroke-width: 2; stroke-dasharray: none; stroke-linecap: butt; stroke-dashoffset: 0; stroke-linejoin: miter; stroke-miterlimit: 4; fill: rgb(255,255,255); fill-opacity: 0; fill-rule: nonzero; opacity: 1;" vector-effect="non-scaling-stroke"  transform=" translate(0, 0)" d="M -14.08601 -27.83198 L 14.08601 27.83198" stroke-linecap="round" />
</g>
<g transform="matrix(1 0 0 1 513.17 247.09)" id="xpPEMFapicoCsZSvC008e"  >
<path style="stroke: rgb(0,0,0); stroke-width: 2; stroke-dasharray: none; stroke-linecap: butt; stroke-dashoffset: 0; stroke-linejoin: miter; stroke-miterlimit: 4; fill: rgb(255,255,255); fill-opacity: 0; fill-rule: nonzero; opacity: 1;" vector-effect="non-scaling-stroke"  transform=" translate(0, 0)" d="M 0 -55.66396 L 0 55.66395" stroke-linecap="round" />
</g>
<g transform="matrix(0.59 0 0 0.59 514.22 191.19)" id="3zuTMGDfh69rIQU-roji9"  >
<path style="stroke: rgb(0,0,0); stroke-width: 2; stroke-dasharray: none; stroke-linecap: butt; stroke-dashoffset: 0; stroke-linejoin: miter; stroke-miterlimit: 4; fill: rgb(255,255,255); fill-opacity: 0; fill-rule: nonzero; opacity: 1;" vector-effect="non-scaling-stroke"  transform=" translate(0, 0)" d="M -31.19748 0.25 L 31.19748 -0.25" stroke-linecap="round" />
</g>
<g transform="matrix(1 0 0 1 563.18 249.09)" id="PYZkN1A6R3SXLqd06BggA"  >
<path style="stroke: rgb(0,0,0); stroke-width: 2; stroke-dasharray: none; stroke-linecap: butt; stroke-dashoffset: 0; stroke-linejoin: miter; stroke-miterlimit: 4; fill: rgb(255,255,255); fill-opacity: 0; fill-rule: nonzero; opacity: 1;" vector-effect="non-scaling-stroke"  transform=" translate(0, 0)" d="M 0 -56.66396 L 0 56.66395" stroke-linecap="round" />
</g>
<g transform="matrix(1 0 0 1 583.79 191.92)" id="35k5qY6tvCZgmvdXYAPZZ"  >
<path style="stroke: rgb(0,0,0); stroke-width: 2; stroke-dasharray: none; stroke-linecap: butt; stroke-dashoffset: 0; stroke-linejoin: miter; stroke-miterlimit: 4; fill: rgb(255,255,255); fill-opacity: 0; fill-rule: nonzero; opacity: 1;" vector-effect="non-scaling-stroke"  transform=" translate(0, 0)" d="M -28.11134 0 L 28.11135 0" stroke-linecap="round" />
</g>
<g transform="matrix(1 0 0 1 290.06 230.09)" id="hwbk-6UkpIXnEVy0YJg3U"  >
<path style="stroke: rgb(0,0,0); stroke-width: 2; stroke-dasharray: none; stroke-linecap: butt; stroke-dashoffset: 0; stroke-linejoin: miter; stroke-miterlimit: 4; fill: rgb(255,255,255); fill-opacity: 0; fill-rule: nonzero; opacity: 1;" vector-effect="non-scaling-stroke"  transform=" translate(0, 0)" d="M -7.56303 0.25 L 7.563019999999999 -0.25" stroke-linecap="round" />
</g>
<g transform="matrix(1 0 0 1 233.06 283.09)" id="lCxYLy3EhLCly_KUv6hQR"  >
<path style="stroke: rgb(0,0,0); stroke-width: 2; stroke-dasharray: none; stroke-linecap: butt; stroke-dashoffset: 0; stroke-linejoin: miter; stroke-miterlimit: 4; fill: rgb(255,255,255); fill-opacity: 0; fill-rule: nonzero; opacity: 1;" vector-effect="non-scaling-stroke"  transform=" translate(0, 0)" d="M -7.56303 0.25 L 7.563019999999999 -0.25" stroke-linecap="round" />
</g>
<g transform="matrix(1 0 0 1 325.04 247.63)" id="cGATEH3feFErDa-4Nb04X"  >
<path style="stroke: rgb(0,0,0); stroke-width: 2; stroke-dasharray: none; stroke-linecap: butt; stroke-dashoffset: 0; stroke-linejoin: miter; stroke-miterlimit: 4; fill: rgb(255,255,255); fill-opacity: 0; fill-rule: nonzero; opacity: 1;" vector-effect="non-scaling-stroke"  transform=" translate(0, 0)" d="M 0 -54.62559 L 0 54.62559" stroke-linecap="round" />
</g>
<g transform="matrix(1 0 0 1 345.47 301.42)" id="akY_4s9eEdrMXieAyKPgX"  >
<path style="stroke: rgb(0,0,0); stroke-width: 2; stroke-dasharray: none; stroke-linecap: butt; stroke-dashoffset: 0; stroke-linejoin: miter; stroke-miterlimit: 4; fill: rgb(255,255,255); fill-opacity: 0; fill-rule: nonzero; opacity: 1;" vector-effect="non-scaling-stroke"  transform=" translate(0, 0)" d="M -25.55252 0 L 25.55252 0" stroke-linecap="round" />
</g>
<g transform="matrix(1 0 0 1 369.53 196.49)" id="9RdPz-by4WF37jaoczA0Y"  >
<path style="stroke: rgb(0,0,0); stroke-width: 2; stroke-dasharray: none; stroke-linecap: butt; stroke-dashoffset: 0; stroke-linejoin: miter; stroke-miterlimit: 4; fill: rgb(255,255,255); fill-opacity: 0; fill-rule: nonzero; opacity: 1;" vector-effect="non-scaling-stroke"  transform=" translate(0, 0)" d="M 0 -4.49055 L 0 4.49054" stroke-linecap="round" />
</g>
<g transform="matrix(1 0 0 1 371.53 297.49)" id="h-yPGbxFt0pogkJIaLtV-"  >
<path style="stroke: rgb(0,0,0); stroke-width: 2; stroke-dasharray: none; stroke-linecap: butt; stroke-dashoffset: 0; stroke-linejoin: miter; stroke-miterlimit: 4; fill: rgb(255,255,255); fill-opacity: 0; fill-rule: nonzero; opacity: 1;" vector-effect="non-scaling-stroke"  transform=" translate(0, 0)" d="M 0 -4.49055 L 0 4.49054" stroke-linecap="round" />
</g>
<g transform="matrix(1 0 0 1 335.25 247.59)" id="7YHplUgBvHq5Lx6EdQMHc"  >
<path style="stroke: rgb(0,0,0); stroke-width: 2; stroke-dasharray: none; stroke-linecap: butt; stroke-dashoffset: 0; stroke-linejoin: miter; stroke-miterlimit: 4; fill: rgb(255,255,255); fill-opacity: 0; fill-rule: nonzero; opacity: 1;" vector-effect="non-scaling-stroke"  transform=" translate(0, 0)" d="M -10.21609 0 L 10.21609 0" stroke-linecap="round" />
</g>
<g transform="matrix(1 0 0 1 345.47 248.3)" id="y_SWcRWTPWeQC10UoDR7B"  >
<path style="stroke: rgb(0,0,0); stroke-width: 2; stroke-dasharray: none; stroke-linecap: butt; stroke-dashoffset: 0; stroke-linejoin: miter; stroke-miterlimit: 4; fill: rgb(255,255,255); fill-opacity: 0; fill-rule: nonzero; opacity: 1;" vector-effect="non-scaling-stroke"  transform=" translate(0, 0)" d="M 0 -8.5084 L 0 8.50841" stroke-linecap="round" />
</g>
<g transform="matrix(0.83 0 0 0.83 411.1 303.25)" id="SMyu0RMEYG8e7Dan1_5wm"  >
<path style="stroke: rgb(0,0,0); stroke-width: 2; stroke-dasharray: none; stroke-linecap: butt; stroke-dashoffset: 0; stroke-linejoin: miter; stroke-miterlimit: 4; fill: rgb(255,255,255); fill-opacity: 0; fill-rule: nonzero; opacity: 1;" vector-effect="non-scaling-stroke"  transform=" translate(0, 0)" d="M -8.98109 0 L 8.98109 0" stroke-linecap="round" />
</g>
<g transform="matrix(1 0 0 1 462.12 303.25)" id="TDmnmDGaslFaQXAJanZmg"  >
<path style="stroke: rgb(0,0,0); stroke-width: 2; stroke-dasharray: none; stroke-linecap: butt; stroke-dashoffset: 0; stroke-linejoin: miter; stroke-miterlimit: 4; fill: rgb(255,255,255); fill-opacity: 0; fill-rule: nonzero; opacity: 1;" vector-effect="non-scaling-stroke"  transform=" translate(0, 0)" d="M -5.67227 0 L 5.67227 0" stroke-linecap="round" />
</g>
<g transform="matrix(0.59 0 0 0.59 514.37 303.9)" id="7Fw1_91oZAE9u-aU3g2UH"  >
<path style="stroke: rgb(0,0,0); stroke-width: 2; stroke-dasharray: none; stroke-linecap: butt; stroke-dashoffset: 0; stroke-linejoin: miter; stroke-miterlimit: 4; fill: rgb(255,255,255); fill-opacity: 0; fill-rule: nonzero; opacity: 1;" vector-effect="non-scaling-stroke"  transform=" translate(0, 0)" d="M -31.19748 0.25 L 31.19748 -0.25" stroke-linecap="round" />
</g>
<g transform="matrix(1 0 0 1 574.24 248.3)" id="1wY2msioTI7Kf8aaj3GuK"  >
<path style="stroke: rgb(0,0,0); stroke-width: 2; stroke-dasharray: none; stroke-linecap: butt; stroke-dashoffset: 0; stroke-linejoin: miter; stroke-miterlimit: 4; fill: rgb(255,255,255); fill-opacity: 0; fill-rule: nonzero; opacity: 1;" vector-effect="non-scaling-stroke"  transform=" translate(0, 0)" d="M -11.55567 0 L 11.55567 0" stroke-linecap="round" />
</g>
<g transform="matrix(1 0 0 1 585.79 248.3)" id="pKG7EcySLPP9AqZEFTRtg"  >
<path style="stroke: rgb(0,0,0); stroke-width: 2; stroke-dasharray: none; stroke-linecap: butt; stroke-dashoffset: 0; stroke-linejoin: miter; stroke-miterlimit: 4; fill: rgb(255,255,255); fill-opacity: 0; fill-rule: nonzero; opacity: 1;" vector-effect="non-scaling-stroke"  transform=" translate(0, 0)" d="M 0 -9.0084 L 0 9.00841" stroke-linecap="round" />
</g>
<g transform="matrix(1 0 0 1 662.9 245.71)" id="FlBEBBfpfs8Txq8GkKcvo"  >
<path style="stroke: rgb(0,0,0); stroke-width: 2; stroke-dasharray: none; stroke-linecap: butt; stroke-dashoffset: 0; stroke-linejoin: miter; stroke-miterlimit: 4; fill: rgb(255,255,255); fill-opacity: 0; fill-rule: nonzero; opacity: 1;" vector-effect="non-scaling-stroke"  transform=" translate(0, 0)" d="M 30.2806 -17.74479 C 30.2806 -47.99688999999999 24.10833 -55.532610000000005 -0.4714999999999989 -54.587230000000005 C -25.05133 -53.641850000000005 -38.28663 -31.425470000000004 -25.05133 -17.244790000000002 C -11.81604 -3.0641200000000026 28.33522 -9.68176 29.2806 14.898069999999997 C 30.22598 39.4779 29.7806 53.65857 4.2553899999999985 54.60395 C -21.269820000000003 55.54933 -25.05133 45.150169999999996 -25.05133 35.696389999999994" stroke-linecap="round" />
</g>
<g transform="matrix(1 0 0 1 692.96 228.34)" id="Z5s1399AgNRHN86ZvMz1p"  >
<path style="stroke: rgb(0,0,0); stroke-width: 2; stroke-dasharray: none; stroke-linecap: butt; stroke-dashoffset: 0; stroke-linejoin: miter; stroke-miterlimit: 4; fill: rgb(255,255,255); fill-opacity: 0; fill-rule: nonzero; opacity: 1;" vector-effect="non-scaling-stroke"  transform=" translate(0, 0)" d="M -8.5084 0 L 8.50841 0" stroke-linecap="round" />
</g>
<g transform="matrix(1 0 0 1 637.96 282.34)" id="4WaTe24abRP3m8Uukfh0w"  >
<path style="stroke: rgb(0,0,0); stroke-width: 2; stroke-dasharray: none; stroke-linecap: butt; stroke-dashoffset: 0; stroke-linejoin: miter; stroke-miterlimit: 4; fill: rgb(255,255,255); fill-opacity: 0; fill-rule: nonzero; opacity: 1;" vector-effect="non-scaling-stroke"  transform=" translate(0, 0)" d="M -8.5084 0 L 8.50841 0" stroke-linecap="round" />
</g>
</svg>