<?xml version="1.0" encoding="UTF-8" standalone="no" ?>
<!DOCTYPE svg PUBLIC "-//W3C//DTD SVG 1.1//EN" "http://www.w3.org/Graphics/SVG/1.1/DTD/svg11.dtd">
<svg xmlns="http://www.w3.org/2000/svg" xmlns:xlink="http://www.w3.org/1999/xlink" version="1.1" width="900" height="450" viewBox="0 0 900 450" xml:space="preserve">
<desc>Created with Fabric.js 4.6.0</desc>
<defs>
</defs>
<rect width="900" height="450" style="fill:rgb(229,228,226);stroke-width:1;stroke:rgb(0,0,0)" />
<g transform="matrix(1 0 0 1 295.9 235.87)" id="sOucoM20P5ig16Uece2xP"  >
<path style="stroke: rgb(0,0,0); stroke-width: 1; stroke-dasharray: none; stroke-linecap: butt; stroke-dashoffset: 0; stroke-linejoin: miter; stroke-miterlimit: 4; fill: rgb(255,255,255); fill-opacity: 0; fill-rule: nonzero; opacity: 1;" vector-effect="non-scaling-stroke"  transform=" translate(0, 0)" d="M 0 0" stroke-linecap="round" />
</g>
<g transform="matrix(1 0 0 1 68.07 199.5)" id="FPg8wClQg-as2BUSKuIbB"  >
<path style="stroke: rgb(0,0,0); stroke-width: 1; stroke-dasharray: none; stroke-linecap: butt; stroke-dashoffset: 0; stroke-linejoin: miter; stroke-miterlimit: 4; fill: rgb(255,255,255); fill-opacity: 0; fill-rule: nonzero; opacity: 1;" vector-effect="non-scaling-stroke"  transform=" translate(0, 0)" d="M 0 0" stroke-linecap="round" />
</g>
<g transform="matrix(1 0 0 1 68.57 200)" id="JEcBu7mKY1rD-luGEezGM"  >
<path style="stroke: rgb(0,0,0); stroke-width: 1; stroke-dasharray: none; stroke-linecap: butt; stroke-dashoffset: 0; stroke-linejoin: miter; stroke-miterlimit: 4; fill: rgb(255,255,255); fill-opacity: 0; fill-rule: nonzero; opacity: 1;" vector-effect="non-scaling-stroke"  transform=" translate(0, 0)" d="M 0 0" stroke-linecap="round" />
</g>
<g transform="matrix(1 0 0 1 179.62 225.8)" id="Rc78AK88P0jdrYLK7x1PA"  >
<path style="stroke: rgb(0,0,0); stroke-width: 1; stroke-dasharray: none; stroke-linecap: butt; stroke-dashoffset: 0; stroke-linejoin: miter; stroke-miterlimit: 4; fill: rgb(255,255,255); fill-opacity: 0; fill-rule: nonzero; opacity: 1;" vector-effect="non-scaling-stroke"  transform=" translate(0, 0)" d="M 0 -111.87862 L 0 111.87863" stroke-linecap="round" />
</g>
<g transform="matrix(1 0 0 1 179.62 113.42)" id="aE6k9ShFd1xySP5cT5nA9"  >
<path style="stroke: rgb(0,0,0); stroke-width: 1; stroke-dasharray: none; stroke-linecap: butt; stroke-dashoffset: 0; stroke-linejoin: miter; stroke-miterlimit: 4; fill: rgb(255,255,255); fill-opacity: 0; fill-rule: nonzero; opacity: 1;" vector-effect="non-scaling-stroke"  transform=" translate(0, 0)" d="M 0 0" stroke-linecap="round" />
</g>
<g transform="matrix(1 0 0 1 213.19 155.95)" id="w58VOjivS3rSu29D9b1K4"  >
<path style="stroke: rgb(0,0,0); stroke-width: 1; stroke-dasharray: none; stroke-linecap: butt; stroke-dashoffset: 0; stroke-linejoin: miter; stroke-miterlimit: 4; fill: rgb(255,255,255); fill-opacity: 0; fill-rule: nonzero; opacity: 1;" vector-effect="non-scaling-stroke"  transform=" translate(0, 0)" d="M -33.57069 -43.03211 C 34.496539999999996 -43.97749 32.605779999999996 -10.834630000000004 33.551159999999996 2.400659999999995 C 34.496539999999996 15.635949999999996 0.9629199999999969 42.106539999999995 -33.07069 43.051919999999996" stroke-linecap="round" />
</g>
<g transform="matrix(1 0 0 1 280.78 225.29)" id="2CYRoWtsV4v3r75ciwYcY"  >
<path style="stroke: rgb(0,0,0); stroke-width: 1; stroke-dasharray: none; stroke-linecap: butt; stroke-dashoffset: 0; stroke-linejoin: miter; stroke-miterlimit: 4; fill: rgb(255,255,255); fill-opacity: 0; fill-rule: nonzero; opacity: 1;" vector-effect="non-scaling-stroke"  transform=" translate(0, 0)" d="M 0 -112.88853 L 0 112.88853" stroke-linecap="round" />
</g>
<g transform="matrix(1 0 0 1 318.37 225.53)" id="cDPTYoCxWv7y6NmJZTooZ"  >
<path style="stroke: rgb(0,0,0); stroke-width: 1; stroke-dasharray: none; stroke-linecap: butt; stroke-dashoffset: 0; stroke-linejoin: miter; stroke-miterlimit: 4; fill: rgb(255,255,255); fill-opacity: 0; fill-rule: nonzero; opacity: 1;" vector-effect="non-scaling-stroke"  transform=" translate(0, 0)" d="M -37.09244 -112.61345 C 12.067219999999999 -113.55883 18.184869999999997 -92.27041 20.075629999999997 -69.58134 C 21.966389999999997 -46.89225999999999 -37.09244 -49.218489999999996 -37.09244 -49.218489999999996 L 37.09243 112.6438" stroke-linecap="round" />
</g>
<g transform="matrix(1 0 0 1 398.95 225.8)" id="Vh6ZXwYqQIQ_HIW3UqpAb"  >
<path style="stroke: rgb(0,0,0); stroke-width: 1; stroke-dasharray: none; stroke-linecap: butt; stroke-dashoffset: 0; stroke-linejoin: miter; stroke-miterlimit: 4; fill: rgb(255,255,255); fill-opacity: 0; fill-rule: nonzero; opacity: 1;" vector-effect="non-scaling-stroke"  transform=" translate(0, 0)" d="M 0 -112.87862 L 0 112.87863" stroke-linecap="round" />
</g>
<g transform="matrix(1 0 0 1 407.93 113.92)" id="LDBH4vKwmXp-bNrLCzmTM"  >
<path style="stroke: rgb(0,0,0); stroke-width: 1; stroke-dasharray: none; stroke-linecap: butt; stroke-dashoffset: 0; stroke-linejoin: miter; stroke-miterlimit: 4; fill: rgb(255,255,255); fill-opacity: 0; fill-rule: nonzero; opacity: 1;" vector-effect="non-scaling-stroke"  transform=" translate(0, 0)" d="M -25.9979 0 L 25.9979 0" stroke-linecap="round" />
</g>
<g transform="matrix(1 0 0 1 410.07 338.18)" id="8nktuvSLiLn9KFxuy2S3k"  >
<path style="stroke: rgb(0,0,0); stroke-width: 1; stroke-dasharray: none; stroke-linecap: butt; stroke-dashoffset: 0; stroke-linejoin: miter; stroke-miterlimit: 4; fill: rgb(255,255,255); fill-opacity: 0; fill-rule: nonzero; opacity: 1;" vector-effect="non-scaling-stroke"  transform=" translate(0, 0)" d="M -24.35714 0 L 24.357149999999997 0" stroke-linecap="round" />
</g>
<g transform="matrix(1 0 0 1 479.31 225.3)" id="YNiYVWUgVvE2avMiNuyf6"  >
<path style="stroke: rgb(0,0,0); stroke-width: 1; stroke-dasharray: none; stroke-linecap: butt; stroke-dashoffset: 0; stroke-linejoin: miter; stroke-miterlimit: 4; fill: rgb(255,255,255); fill-opacity: 0; fill-rule: nonzero; opacity: 1;" vector-effect="non-scaling-stroke"  transform=" translate(0, 0)" d="M 0 -112.37862 L 0 112.37863" stroke-linecap="round" />
</g>
<g transform="matrix(1 0 0 1 514.29 226.05)" id="1zDigrA3-7I5Fq5bjAICm"  >
<path style="stroke: rgb(0,0,0); stroke-width: 1; stroke-dasharray: none; stroke-linecap: butt; stroke-dashoffset: 0; stroke-linejoin: miter; stroke-miterlimit: 4; fill: rgb(255,255,255); fill-opacity: 0; fill-rule: nonzero; opacity: 1;" vector-effect="non-scaling-stroke"  transform=" translate(0, 0)" d="M -34.97899 -112.12862 L 34.97899 112.12863 L 34.97899 -111.62862" stroke-linecap="round" />
</g>
<g transform="matrix(1 0 0 1 620.17 225.55)" id="LdzzXaY2RoUH-pNVmET7e"  >
<path style="stroke: rgb(0,0,0); stroke-width: 1; stroke-dasharray: none; stroke-linecap: butt; stroke-dashoffset: 0; stroke-linejoin: miter; stroke-miterlimit: 4; fill: rgb(255,255,255); fill-opacity: 0; fill-rule: nonzero; opacity: 1;" vector-effect="non-scaling-stroke"  transform=" translate(0, 0)" d="M 0 -112.62862 L 0 112.62863" stroke-linecap="round" />
</g>
<g transform="matrix(1 0 0 1 625.84 112.41)" id="EcRMemckoenepo52jptxz"  >
<path style="stroke: rgb(0,0,0); stroke-width: 1; stroke-dasharray: none; stroke-linecap: butt; stroke-dashoffset: 0; stroke-linejoin: miter; stroke-miterlimit: 4; fill: rgb(255,255,255); fill-opacity: 0; fill-rule: nonzero; opacity: 1;" vector-effect="non-scaling-stroke"  transform=" translate(0, 0)" d="M -31.19748 -0.50991 L 31.19748 0.5099000000000001" stroke-linecap="round" />
</g>
</svg>