<?xml version="1.0" encoding="UTF-8" standalone="no" ?>
<!DOCTYPE svg PUBLIC "-//W3C//DTD SVG 1.1//EN" "http://www.w3.org/Graphics/SVG/1.1/DTD/svg11.dtd">
<svg xmlns="http://www.w3.org/2000/svg" xmlns:xlink="http://www.w3.org/1999/xlink" version="1.1" width="200" height="200"  >
<desc>Created with Fabric.js 4.6.0</desc>
<defs>
</defs>

<g transform="matrix(1 0 0 1 168.63 250)" id="kuw4ZyFpcf6QJruEf4pC4"  >
<path style="stroke: rgb(0,0,0); stroke-width: 4; stroke-dasharray: none; stroke-linecap: butt; stroke-dashoffset: 0; stroke-linejoin: miter; stroke-miterlimit: 4; fill: rgb(255,255,255); fill-opacity: 0; fill-rule: nonzero; opacity: 1;" vector-effect="non-scaling-stroke"  transform=" translate(0, 0)" d="M 0 0" stroke-linecap="round" />
</g>
<g transform="matrix(1 0 0 1 -46.73 192.6)" id="hiMpHaZ1BOI2LTBHdnLzT"  >
<path style="stroke: rgb(0,0,0); stroke-width: 4; stroke-dasharray: none; stroke-linecap: butt; stroke-dashoffset: 0; stroke-linejoin: miter; stroke-miterlimit: 4; fill: rgb(255,255,255); fill-opacity: 0; fill-rule: nonzero; opacity: 1;" vector-effect="non-scaling-stroke"  transform=" translate(0, 0)" d="M 0 0" stroke-linecap="round" />
</g>
<g transform="matrix(1 0 0 1 58.5 102.82)" id="FudxsOnRVRugjLVtyF8Qd"  >
<path style="stroke: rgb(0,0,0); stroke-width: 4; stroke-dasharray: none; stroke-linecap: butt; stroke-dashoffset: 0; stroke-linejoin: miter; stroke-miterlimit: 4; fill: rgb(255,255,255); fill-opacity: 0; fill-rule: nonzero; opacity: 1;" vector-effect="non-scaling-stroke"  transform=" translate(0, 0)" d="M 0 0" stroke-linecap="round" />
</g>
<g transform="matrix(1 0 0 1 74.55 103.32)" id="HWSFvZRFV3K9P0OHKQMK5"  >
<path style="stroke: rgb(0,0,0); stroke-width: 4; stroke-dasharray: none; stroke-linecap: butt; stroke-dashoffset: 0; stroke-linejoin: miter; stroke-miterlimit: 4; fill: rgb(255,255,255); fill-opacity: 0; fill-rule: nonzero; opacity: 1;" vector-effect="non-scaling-stroke"  transform=" translate(0, 0)" d="M 0 0" stroke-linecap="round" />
</g>
<g transform="matrix(1 0 0 1 139.26 225.84)" id="yI6Lo0OtgQfVp7jxHYODE"  >
<path style="stroke: rgb(0,0,0); stroke-width: 4; stroke-dasharray: none; stroke-linecap: butt; stroke-dashoffset: 0; stroke-linejoin: miter; stroke-miterlimit: 4; fill: rgb(255,255,255); fill-opacity: 0; fill-rule: nonzero; opacity: 1;" vector-effect="non-scaling-stroke"  transform=" translate(0, 0)" d="M 0 0" stroke-linecap="round" />
</g>
<g transform="matrix(1 0 0 1 169.13 157.31)" id="LfcfkhmtyS9lNrEaJj-J0"  >
<path style="stroke: rgb(0,0,0); stroke-width: 4; stroke-dasharray: none; stroke-linecap: butt; stroke-dashoffset: 0; stroke-linejoin: miter; stroke-miterlimit: 4; fill: rgb(255,255,255); fill-opacity: 0; fill-rule: nonzero; opacity: 1;" vector-effect="non-scaling-stroke"  transform=" translate(0, 0)" d="M -73.67449 -61.02552 L -72.67449 33.099329999999995 C -72.67449 33.099329999999995 -73.76902000000001 59.90263999999999 -57.7167 60.49717 C -41.66438 61.091699999999996 -29.773770000000003 2.1837599999999995 -29.773770000000003 2.1837599999999995 L -29.773770000000003 45.584469999999996 C -29.773770000000003 45.584469999999996 -29.179240000000004 60.49717 -17.883160000000004 60.49717 C -6.587080000000004 60.49717 7.681639999999998 2.1837599999999995 7.681639999999998 2.1837599999999995 L 7.681639999999998 60.49717 C 7.681639999999998 60.49717 15.410529999999998 21.613209999999995 17.194129999999998 15.07338 C 18.977719999999998 8.53355 25.51755 -2.5724899999999984 30.273799999999998 -1.9779599999999995 C 35.03004 -1.3834299999999995 37.408159999999995 6.155420000000001 36.813629999999996 15.07338 C 36.2191 23.991329999999998 36.813629999999996 60.49717 36.813629999999996 60.49717 L 40.975339999999996 15.07338 C 40.975339999999996 15.07338 39.19175 -1.9779599999999995 47.51517 -1.9779599999999995 C 55.838589999999996 -1.9779599999999995 63.56749 6.74995 63.56749 15.07338 C 63.56749 23.3968 63.56749 38.450109999999995 63.56749 45.584469999999996 C 63.56749 52.71883 69.51279 61.591699999999996 73.67451 60.99717" stroke-linecap="round" />
</g>
<g transform="matrix(1 0 0 1 268.06 188.07)" id="YKeVy7T1MYx86ctNHybyv"  >
<path style="stroke: rgb(0,0,0); stroke-width: 4; stroke-dasharray: none; stroke-linecap: butt; stroke-dashoffset: 0; stroke-linejoin: miter; stroke-miterlimit: 4; fill: rgb(255,255,255); fill-opacity: 0; fill-rule: nonzero; opacity: 1;" vector-effect="non-scaling-stroke"  transform=" translate(0, 0)" d="M -24.75084 30.7597 C -15.83289 31.354229999999998 11.671180000000003 -11.497240000000001 11.671180000000003 -14.469890000000003 C 11.671180000000003 -17.44254 13.454770000000003 -30.765830000000005 2.1586900000000036 -30.765830000000005 C -9.137389999999996 -30.765830000000005 -18.055339999999998 -24.576910000000005 -18.055339999999998 -14.469890000000003 C -18.055339999999998 -4.362870000000003 -18.055339999999998 3.960549999999998 -18.055339999999998 13.473039999999997 C -18.055339999999998 22.985529999999997 -8.542849999999998 30.7597 2.1586900000000036 30.7597 C 12.860240000000003 30.7597 21.778190000000002 18.823809999999998 24.750840000000004 13.473039999999997" stroke-linecap="round" />
</g>
<g transform="matrix(1 0 0 1 101.13 139.33)" id="QmbaTCOzpM06J8Q5WSQ6j"  >
<path style="stroke: rgb(0,0,0); stroke-width: 4; stroke-dasharray: none; stroke-linecap: butt; stroke-dashoffset: 0; stroke-linejoin: miter; stroke-miterlimit: 4; fill: rgb(255,255,255); fill-opacity: 0; fill-rule: nonzero; opacity: 1;" vector-effect="non-scaling-stroke"  transform=" translate(0, 0)" d="M -26.08098 -1.39731 C -15.379430000000001 -10.315259999999999 -17.59947 18.222189999999998 6.181740000000001 2.16987 C 29.962950000000003 -13.882450000000002 25.80124 -4.369960000000001 25.80124 -4.369960000000001" stroke-linecap="round" />
</g>
<g transform="matrix(1 0 0 1 139.26 143.28)" id="e508uxk-ZkVpyIRFa0pTX"  >
<path style="stroke: rgb(0,0,0); stroke-width: 4; stroke-dasharray: none; stroke-linecap: butt; stroke-dashoffset: 0; stroke-linejoin: miter; stroke-miterlimit: 4; fill: rgb(255,255,255); fill-opacity: 0; fill-rule: nonzero; opacity: 1;" vector-effect="non-scaling-stroke"  transform=" translate(0, 0)" d="M 0 0" stroke-linecap="round" />
</g>
<g transform="matrix(1 0 0 1 139.88 149.37)" id="P46d0jVVOM9pRDwiIgsq4"  >
<path style="stroke: rgb(144,236,44); stroke-width: 0; stroke-dasharray: none; stroke-linecap: butt; stroke-dashoffset: 0; stroke-linejoin: miter; stroke-miterlimit: 4; fill: rgb(0,0,0); fill-rule: nonzero; opacity: 1;" vector-effect="non-scaling-stroke"  transform=" translate(-2.38, -2.38)" d="M 2.37812 0 C 3.69084 0 4.75624 1.0654 4.75624 2.37812 C 4.75624 3.69084 3.69084 4.75624 2.37812 4.75624 C 1.0654 4.75624 0 3.69084 0 2.37812 C 0 1.0654 1.0654 0 2.37812 0 z" stroke-linecap="round" />
</g>
</svg>